<?xml version="1.0" encoding="UTF-8"?><svg id="_이어_2" xmlns="http://www.w3.org/2000/svg" viewBox="0 0 100 100"><defs><style>.cls-1{fill:#c3e0fc;}.cls-1,.cls-2,.cls-3,.cls-4{stroke:#38383b;stroke-linecap:round;stroke-linejoin:round;}.cls-2{fill:#fff;}.cls-3,.cls-4{fill:none;}.cls-5{fill:#f7f7f7;}.cls-4{stroke-dasharray:0 0 1.67 5.02;}</style></defs><g id="_이어_1-2"><circle class="cls-5" cx="50" cy="50" r="50"/><g><polygon class="cls-1" points="35.51 66.96 73.18 66.96 69.95 40.93 32.28 40.93 35.51 66.96"/><polygon class="cls-1" points="66.67 66.96 29 66.96 32.22 40.93 69.89 40.93 66.67 66.96"/><polygon class="cls-2" points="63.15 61.64 33.17 61.64 35.74 40.93 65.72 40.93 63.15 61.64"/><g><line class="cls-3" x1="60.19" y1="45.64" x2="59.46" y2="45.64"/><line class="cls-4" x1="54.44" y1="45.64" x2="43.55" y2="45.64"/><line class="cls-3" x1="41.04" y1="45.64" x2="40.31" y2="45.64"/></g><g><line class="cls-3" x1="59.73" y1="49.18" x2="59" y2="49.18"/><line class="cls-4" x1="53.98" y1="49.18" x2="43.09" y2="49.18"/><line class="cls-3" x1="40.58" y1="49.18" x2="39.85" y2="49.18"/></g><g><line class="cls-3" x1="59.27" y1="52.73" x2="58.54" y2="52.73"/><line class="cls-4" x1="53.52" y1="52.73" x2="42.63" y2="52.73"/><line class="cls-3" x1="40.12" y1="52.73" x2="39.39" y2="52.73"/></g><g><line class="cls-3" x1="58.46" y1="56.28" x2="57.73" y2="56.28"/><line class="cls-4" x1="52.71" y1="56.28" x2="41.83" y2="56.28"/><line class="cls-3" x1="39.32" y1="56.28" x2="38.59" y2="56.28"/></g><line class="cls-2" x1="34.87" y1="40.93" x2="34.87" y2="37.94"/><line class="cls-2" x1="38.47" y1="40.93" x2="38.47" y2="37.94"/><line class="cls-2" x1="42.07" y1="40.93" x2="42.07" y2="37.94"/><line class="cls-2" x1="45.67" y1="40.93" x2="45.67" y2="37.94"/><line class="cls-2" x1="49.27" y1="40.93" x2="49.27" y2="37.94"/><line class="cls-2" x1="52.87" y1="40.93" x2="52.87" y2="37.94"/><line class="cls-2" x1="56.47" y1="40.93" x2="56.47" y2="37.94"/><line class="cls-2" x1="60.07" y1="40.93" x2="60.07" y2="37.94"/><line class="cls-2" x1="63.67" y1="40.93" x2="63.67" y2="37.94"/><line class="cls-2" x1="66.69" y1="40.34" x2="66.69" y2="37.35"/><circle class="cls-2" cx="34.25" cy="40.47" r="7.43"/><polyline class="cls-2" points="31.39 40.47 34.25 40.47 34.25 36.14"/></g></g></svg>