<?xml version="1.0" encoding="UTF-8"?><svg id="_이어_2" xmlns="http://www.w3.org/2000/svg" viewBox="0 0 100 100"><defs><style>.cls-1{fill:#c3e0fc;}.cls-1,.cls-2{stroke:#38383b;stroke-linecap:round;stroke-linejoin:round;}.cls-2{fill:#fff;}.cls-3{fill:#f7f7f7;}</style></defs><g id="_이어_1-2"><circle class="cls-3" cx="50" cy="50" r="50"/><g><rect class="cls-2" x="56.2" y="60.51" width="3.12" height="9.13"/><path class="cls-2" d="M37.13,29.07v22.9c0,6.12,4.27,11.22,9.99,12.53v5.13h5.75v-5.13c5.72-1.31,9.99-6.42,9.99-12.53V29.07h-25.73Z"/><path class="cls-1" d="M47.92,61.04c-4.26-.97-7.23-4.7-7.23-9.07v-4.24h18.63v4.24c0,4.37-2.97,8.09-7.23,9.07l-2.08,.48-2.08-.48Z"/><line class="cls-2" x1="59.31" y1="43.96" x2="57.71" y2="43.96"/><line class="cls-2" x1="59.31" y1="40.83" x2="57.71" y2="40.83"/><line class="cls-2" x1="59.31" y1="37.69" x2="57.71" y2="37.69"/><line class="cls-2" x1="59.31" y1="34.56" x2="57.71" y2="34.56"/><line class="cls-2" x1="50" y1="69.64" x2="50" y2="77.06"/><line class="cls-2" x1="57.75" y1="69.64" x2="57.75" y2="77.06"/><rect class="cls-2" x="44.49" y="22.94" width="11.91" height="6.14"/><circle class="cls-2" cx="50.44" cy="26.01" r="1.1"/></g></g></svg>