<?xml version="1.0" encoding="UTF-8"?><svg xmlns="http://www.w3.org/2000/svg" viewBox="0 0 100 100"><defs><style>.cls-1{fill:#c3e0fc;}.cls-1,.cls-2,.cls-3{stroke:#38383b;stroke-linecap:round;stroke-linejoin:round;}.cls-2{fill:#fff;}.cls-3{fill:#ff7f79;}.cls-4{fill:#f7f7f7;}.cls-5{fill:#38383b;}.cls-6{fill:#dadbe1;mix-blend-mode:darken;}.cls-7{isolation:isolate;}</style></defs><g class="cls-7"><g id="_이어_2"><g id="_이어_1-2"><circle class="cls-4" cx="50" cy="50" r="50"/><g><g><rect class="cls-2" x="39.96" y="23.06" width="20.08" height="53.87" rx="10.04" ry="10.04" transform="translate(-20.71 50) rotate(-45)"/><rect class="cls-3" x="43.77" y="43.77" width="12.47" height="12.47" transform="translate(-20.71 50) rotate(-45)"/><circle class="cls-5" cx="36.28" cy="36.28" r=".96"/><circle class="cls-5" cx="36.84" cy="41.25" r=".96"/><circle class="cls-5" cx="41.25" cy="36.84" r=".96"/><circle class="cls-5" cx="63.72" cy="63.72" r=".96"/><circle class="cls-5" cx="58.75" cy="63.16" r=".96"/><circle class="cls-5" cx="63.16" cy="58.75" r=".96"/></g><g><rect class="cls-2" x="39.96" y="23.06" width="20.08" height="53.87" rx="10.04" ry="10.04" transform="translate(50 -20.71) rotate(45)"/><rect class="cls-1" x="43.77" y="43.77" width="12.47" height="12.47" transform="translate(50 -20.71) rotate(45)"/><circle class="cls-5" cx="63.72" cy="36.28" r=".96"/><circle class="cls-5" cx="58.75" cy="36.84" r=".96"/><circle class="cls-5" cx="63.16" cy="41.25" r=".96"/><circle class="cls-5" cx="36.28" cy="63.72" r=".96"/><circle class="cls-5" cx="36.84" cy="58.75" r=".96"/><circle class="cls-5" cx="41.25" cy="63.16" r=".96"/></g><rect class="cls-6" x="31.85" y="40.45" width="20.08" height="2.87" transform="translate(-17.35 41.89) rotate(-45)"/><rect class="cls-6" x="48.07" y="56.68" width="20.08" height="2.87" transform="translate(-24.07 58.11) rotate(-45)"/></g></g></g></g></svg>