<?xml version="1.0" encoding="utf-8"?>
<!-- Generator: Adobe Illustrator 24.3.0, SVG Export Plug-In . SVG Version: 6.00 Build 0)  -->
<svg version="1.1" id="Layer_1" xmlns="http://www.w3.org/2000/svg" xmlns:xlink="http://www.w3.org/1999/xlink" x="0px" y="0px"
	 viewBox="0 0 300 300" enable-background="new 0 0 300 300" xml:space="preserve">
<g>
	<g>
		<g>
			<rect x="111.624" y="18.426" fill="#FE6F80" width="82.234" height="71.269"/>
		</g>
		<g>
			<rect x="18.426" y="265.127" fill="#7FD3B9" width="263.148" height="16.447"/>
		</g>
		<g>
			<path fill="#E5E5E4" d="M165.076,62.284c-1.044-6.526-5.515-10.965-12.335-10.965c-6.821,0-11.291,4.438-12.335,10.965
				c-5.488,0-8.223,4.363-8.223,8.454c0,4.409,3.581,7.993,7.999,7.993c2.056,0,23.064,0,25.12,0c4.417,0,7.999-3.584,7.999-7.993
				C173.3,66.647,170.564,62.284,165.076,62.284z"/>
		</g>
		<g>
			<path fill="#E5E5E4" d="M177.411,48.578c0,4.54-2.452,8.223-5.482,8.223c-3.03,0-5.482-3.684-5.482-8.223
				c0-4.54,2.452-8.223,5.482-8.223C174.959,40.355,177.411,44.039,177.411,48.578z"/>
		</g>
		<g>
			<ellipse fill="#E5E5E4" cx="133.553" cy="48.578" rx="5.482" ry="8.223"/>
		</g>
		<g>
			<path fill="#E5E5E4" d="M150,37.614c0,4.54-2.452,8.223-5.482,8.223c-3.03,0-5.482-3.684-5.482-8.223
				c0-4.54,2.452-8.223,5.482-8.223C147.548,29.391,150,33.074,150,37.614z"/>
		</g>
		<g>
			<path fill="#E5E5E4" d="M166.447,37.614c0,4.54-2.452,8.223-5.482,8.223s-5.482-3.684-5.482-8.223
				c0-4.54,2.452-8.223,5.482-8.223S166.447,33.074,166.447,37.614z"/>
		</g>
		<g>
			<polygon fill="#E5E5E4" points="193.858,84.213 193.858,89.695 111.624,89.695 111.624,84.213 73.249,84.213 73.249,265.127 
				226.751,265.127 226.751,84.213 			"/>
		</g>
		<g>
			<path fill="#9AD7D2" d="M226.751,62.284h-32.893v21.929h32.893c6.055,0,10.965-4.909,10.965-10.965
				S232.807,62.284,226.751,62.284z"/>
		</g>
		<g>
			<path fill="#9AD7D2" d="M111.624,62.284H73.249c-6.055,0-10.964,4.909-10.964,10.964s4.909,10.965,10.964,10.965h38.376V62.284z"
				/>
		</g>
		<g>
			<path fill="#ABEDE6" d="M73.249,73.248c0-6.055,4.909-10.964,10.965-10.964H73.249c-6.055,0-10.964,4.909-10.964,10.964
				s4.909,10.965,10.964,10.965h10.965C78.158,84.213,73.249,79.304,73.249,73.248z"/>
		</g>
		<g>
			<polygon fill="#FE6F80" points="166.447,166.447 155.482,166.447 155.482,155.482 144.518,155.482 144.518,166.447 
				133.553,166.447 133.553,177.411 144.518,177.411 144.518,188.376 155.482,188.376 155.482,177.411 166.447,177.411 			"/>
		</g>
		<g>
			<rect x="111.624" y="210.305" fill="#9AD7D2" width="76.751" height="54.822"/>
		</g>
		<g>
			<rect x="95.178" y="160.964" fill="#9AD7D2" width="21.929" height="21.929"/>
		</g>
		<g>
			<rect x="182.893" y="160.964" fill="#9AD7D2" width="21.929" height="21.929"/>
		</g>
		<g>
			<rect x="95.178" y="117.106" fill="#9AD7D2" width="21.929" height="21.929"/>
		</g>
		<g>
			<rect x="139.035" y="117.106" fill="#9AD7D2" width="21.929" height="21.929"/>
		</g>
		<g>
			<rect x="182.893" y="117.106" fill="#9AD7D2" width="21.929" height="21.929"/>
		</g>
		<g>
			<path fill="#7FD3B9" d="M62.284,207.564c0-10.6-8.593-19.188-19.188-19.188s-19.188,8.587-19.188,19.188
				c0,7.64,4.503,14.182,10.964,17.271v40.292H51.32v-40.292C57.781,221.746,62.284,215.204,62.284,207.564z"/>
		</g>
		<g>
			<path fill="#7FD3B9" d="M276.092,207.564c0-10.6-8.593-19.188-19.188-19.188c-10.595,0-19.188,8.587-19.188,19.188
				c0,7.64,4.503,14.182,10.964,17.271v40.292h16.447v-40.292C271.589,221.746,276.092,215.204,276.092,207.564z"/>
		</g>
		<g>
			<rect x="111.624" y="18.426" fill="#FFA1AA" width="10.964" height="71.269"/>
		</g>
		<g>
			<rect x="73.249" y="84.213" fill="#EFEFEF" width="10.964" height="180.914"/>
		</g>
		<g>
			<path fill="#BBEAD9" d="M29.391,207.564c0-9.658,7.163-17.571,16.447-18.909c-0.904-0.129-1.804-0.278-2.741-0.278
				c-10.595,0-19.188,8.587-19.188,19.188c0,7.64,4.503,14.182,10.964,17.271v40.292h5.482v-40.292
				C33.893,221.746,29.391,215.204,29.391,207.564z"/>
		</g>
		<g>
			<path fill="#BBEAD9" d="M243.198,207.564c0-9.658,7.163-17.571,16.447-18.909c-0.905-0.129-1.804-0.278-2.741-0.278
				c-10.595,0-19.188,8.587-19.188,19.188c0,7.64,4.503,14.182,10.964,17.271v40.292h5.482v-40.292
				C247.701,221.746,243.198,215.204,243.198,207.564z"/>
		</g>
		<g>
			<rect x="18.426" y="265.127" fill="#BBEAD9" width="21.929" height="16.447"/>
		</g>
		<g>
			<rect x="111.624" y="210.305" fill="#ABEDE6" width="5.482" height="54.822"/>
		</g>
		<g>
			<rect x="95.178" y="117.106" fill="#ABEDE6" width="5.482" height="21.929"/>
		</g>
		<g>
			<rect x="95.178" y="160.964" fill="#ABEDE6" width="5.482" height="21.929"/>
		</g>
		<g>
			<rect x="182.893" y="117.106" fill="#ABEDE6" width="5.482" height="21.929"/>
		</g>
		<g>
			<rect x="139.035" y="117.106" fill="#ABEDE6" width="5.482" height="21.929"/>
		</g>
		<g>
			<rect x="182.893" y="160.964" fill="#ABEDE6" width="5.482" height="21.929"/>
		</g>
	</g>
	<g>
		<g>
			<path fill="#161616" d="M281.574,287.056H18.426c-3.03,0-5.482-2.455-5.482-5.482v-16.447c0-3.028,2.452-5.482,5.482-5.482
				h263.148c3.03,0,5.482,2.455,5.482,5.482v16.447C287.056,284.602,284.604,287.056,281.574,287.056z M23.908,276.092h252.183
				v-5.482H23.908V276.092z"/>
		</g>
		<g>
			<path fill="#161616" d="M165.076,62.284c-1.044-6.526-5.515-10.965-12.335-10.965c-6.821,0-11.291,4.438-12.335,10.965
				c-5.488,0-8.223,4.363-8.223,8.454c0,4.409,3.581,7.993,7.999,7.993c2.056,0,23.064,0,25.12,0c4.417,0,7.999-3.584,7.999-7.993
				C173.3,66.647,170.564,62.284,165.076,62.284z"/>
		</g>
		<g>
			<path fill="#161616" d="M177.411,48.578c0,4.54-2.452,8.223-5.482,8.223c-3.03,0-5.482-3.684-5.482-8.223
				c0-4.54,2.452-8.223,5.482-8.223C174.959,40.355,177.411,44.039,177.411,48.578z"/>
		</g>
		<g>
			<ellipse fill="#161616" cx="133.553" cy="48.578" rx="5.482" ry="8.223"/>
		</g>
		<g>
			<path fill="#161616" d="M150,37.614c0,4.54-2.452,8.223-5.482,8.223c-3.03,0-5.482-3.684-5.482-8.223
				c0-4.54,2.452-8.223,5.482-8.223C147.548,29.391,150,33.074,150,37.614z"/>
		</g>
		<g>
			<path fill="#161616" d="M166.447,37.614c0,4.54-2.452,8.223-5.482,8.223s-5.482-3.684-5.482-8.223
				c0-4.54,2.452-8.223,5.482-8.223S166.447,33.074,166.447,37.614z"/>
		</g>
		<g>
			<path fill="#161616" d="M193.858,95.177h-82.234c-3.03,0-5.482-2.455-5.482-5.482V18.426c0-3.028,2.452-5.482,5.482-5.482h82.234
				c3.03,0,5.482,2.455,5.482,5.482v71.269C199.34,92.723,196.888,95.177,193.858,95.177z M117.107,84.213h71.269V23.908h-71.269
				V84.213z"/>
		</g>
		<g>
			<path fill="#161616" d="M226.751,89.695h-32.893c-3.03,0-5.482-2.455-5.482-5.482V62.284c0-3.028,2.452-5.482,5.482-5.482h32.893
				c9.069,0,16.447,7.377,16.447,16.447S235.821,89.695,226.751,89.695z M199.34,78.731h27.411c3.025,0,5.482-2.46,5.482-5.482
				c0-3.022-2.457-5.482-5.482-5.482H199.34V78.731z"/>
		</g>
		<g>
			<path fill="#161616" d="M111.624,89.695H73.249c-9.069,0-16.447-7.377-16.447-16.447s7.377-16.447,16.447-16.447h38.376
				c3.03,0,5.482,2.455,5.482,5.482v21.929C117.107,87.241,114.654,89.695,111.624,89.695z M73.249,67.766
				c-3.025,0-5.482,2.46-5.482,5.482c0,3.022,2.457,5.482,5.482,5.482h32.894V67.766H73.249z"/>
		</g>
		<g>
			<polygon fill="#161616" points="166.447,166.447 155.482,166.447 155.482,155.482 144.518,155.482 144.518,166.447 
				133.553,166.447 133.553,177.411 144.518,177.411 144.518,188.376 155.482,188.376 155.482,177.411 166.447,177.411 			"/>
		</g>
		<g>
			<path fill="#161616" d="M117.107,188.376H95.178c-3.03,0-5.482-2.455-5.482-5.482v-21.929c0-3.028,2.452-5.482,5.482-5.482
				h21.929c3.03,0,5.482,2.455,5.482,5.482v21.929C122.589,185.921,120.137,188.376,117.107,188.376z M100.66,177.411h10.965
				v-10.964H100.66V177.411z"/>
		</g>
		<g>
			<path fill="#161616" d="M204.822,188.376h-21.929c-3.03,0-5.482-2.455-5.482-5.482v-21.929c0-3.028,2.452-5.482,5.482-5.482
				h21.929c3.03,0,5.482,2.455,5.482,5.482v21.929C210.305,185.921,207.853,188.376,204.822,188.376z M188.376,177.411h10.964
				v-10.964h-10.964V177.411z"/>
		</g>
		<g>
			<path fill="#161616" d="M117.107,144.518H95.178c-3.03,0-5.482-2.455-5.482-5.482v-21.929c0-3.028,2.452-5.482,5.482-5.482
				h21.929c3.03,0,5.482,2.455,5.482,5.482v21.929C122.589,142.063,120.137,144.518,117.107,144.518z M100.66,133.553h10.965
				v-10.964H100.66V133.553z"/>
		</g>
		<g>
			<path fill="#161616" d="M160.964,144.518h-21.929c-3.03,0-5.482-2.455-5.482-5.482v-21.929c0-3.028,2.452-5.482,5.482-5.482
				h21.929c3.03,0,5.482,2.455,5.482,5.482v21.929C166.447,142.063,163.995,144.518,160.964,144.518z M144.518,133.553h10.964
				v-10.964h-10.964V133.553z"/>
		</g>
		<g>
			<path fill="#161616" d="M204.822,144.518h-21.929c-3.03,0-5.482-2.455-5.482-5.482v-21.929c0-3.028,2.452-5.482,5.482-5.482
				h21.929c3.03,0,5.482,2.455,5.482,5.482v21.929C210.305,142.063,207.853,144.518,204.822,144.518z M188.376,133.553h10.964
				v-10.964h-10.964V133.553z"/>
		</g>
		<g>
			<path fill="#161616" d="M51.32,270.609H34.873c-3.03,0-5.482-2.455-5.482-5.482v-37.128c-6.756-4.54-10.965-12.228-10.965-20.435
				c0-13.604,11.066-24.67,24.67-24.67s24.67,11.066,24.67,24.67c0,8.207-4.208,15.895-10.964,20.435v37.128
				C56.802,268.155,54.35,270.609,51.32,270.609z M40.355,259.645h5.482v-34.81c0-2.112,1.215-4.037,3.116-4.947
				c4.84-2.313,7.849-7.035,7.849-12.324c0-7.557-6.146-13.706-13.706-13.706s-13.706,6.149-13.706,13.706
				c0,5.29,3.009,10.012,7.849,12.324c1.901,0.91,3.116,2.835,3.116,4.947V259.645z"/>
		</g>
		<g>
			<path fill="#161616" d="M265.127,270.609H248.68c-3.03,0-5.482-2.455-5.482-5.482v-37.128
				c-6.757-4.54-10.965-12.228-10.965-20.435c0-13.604,11.066-24.67,24.67-24.67c13.604,0,24.67,11.066,24.67,24.67
				c0,8.207-4.208,15.895-10.965,20.435v37.128C270.609,268.155,268.157,270.609,265.127,270.609z M254.163,259.645h5.482v-34.81
				c0-2.112,1.215-4.037,3.116-4.947c4.84-2.313,7.849-7.035,7.849-12.324c0-7.557-6.146-13.706-13.706-13.706
				c-7.56,0-13.706,6.149-13.706,13.706c0,5.29,3.009,10.012,7.849,12.324c1.9,0.91,3.116,2.835,3.116,4.947V259.645z"/>
		</g>
		<g>
			<path fill="#161616" d="M188.376,270.609h-76.752c-3.03,0-5.482-2.455-5.482-5.482v-54.822c0-3.028,2.452-5.482,5.482-5.482
				h76.752c3.03,0,5.482,2.455,5.482,5.482v16.447c0,3.028-2.452,5.482-5.482,5.482c-3.03,0-5.482-2.455-5.482-5.482v-10.965
				h-65.787v43.858h65.787V248.68c0-3.028,2.452-5.482,5.482-5.482c3.03,0,5.482,2.455,5.482,5.482v16.447
				C193.858,268.155,191.406,270.609,188.376,270.609z"/>
		</g>
		<g>
			<path fill="#161616" d="M226.751,270.609H73.249c-3.03,0-5.482-2.455-5.482-5.482V139.035c0-3.028,2.452-5.482,5.482-5.482
				c3.03,0,5.482,2.455,5.482,5.482v120.609h142.538V89.695H199.34c0,3.028-2.452,5.482-5.482,5.482h-82.234
				c-3.03,0-5.482-2.455-5.482-5.482H78.731v27.411c0,3.027-2.452,5.482-5.482,5.482c-3.03,0-5.482-2.455-5.482-5.482V84.213
				c0-3.028,2.452-5.482,5.482-5.482h38.376c3.03,0,5.482,2.455,5.482,5.482h71.269c0-3.028,2.452-5.482,5.482-5.482h32.893
				c3.03,0,5.482,2.455,5.482,5.482v180.914C232.234,268.155,229.782,270.609,226.751,270.609z"/>
		</g>
	</g>
</g>
</svg>
